# xmcd
#
# Track frame offsets: 
#        150
#        34453
#        57055
#        83380
#        121328
#        145833
#        169315
#        192549
#        218385
#        244287
#        271942
#        297844
#
# Disc length: 4238 seconds
#
# Revision: 0
# Processed by: cddbd v1.5.2PL0 Copyright (c) Steve Scherf et al.
# Submitted via: ExactAudioCopyFreeDBPlugin 1.0
#
DISCID=ac108c0c
DTITLE=Various Artist - The Ultimate Club Anthems Album - CD3
DYEAR=2008
DGENRE=House
TTITLE0=Bent - Always (Ashley Beedle's Mahavishnu Remix)
TTITLE1=Notenshun Feat. Sandy Mill - Lyrical Flight
TTITLE2=Dab Hands - Do Your Own Thing
TTITLE3=S.B.H Project Feat. Gerideau - Now That We've Found Love
TTITLE4=Seth Sanchez - Lovin' That
TTITLE5=Higher Ground - Thru You
TTITLE6=Tease - Indian Summer
TTITLE7=Space Brothers - Turn Me Round
TTITLE8=Vivas - Let The Beat
TTITLE9=South Side Productions - Transformations
TTITLE10=Tek 7 - Free Spirit
TTITLE11=Stimulate - Secret
EXTD=
EXTT0=
EXTT1=
EXTT2=
EXTT3=
EXTT4=
EXTT5=
EXTT6=
EXTT7=
EXTT8=
EXTT9=
EXTT10=
EXTT11=
PLAYORDER=
